<svg width="30" height="30" viewBox="0 0 30 30" fill="none" xmlns="http://www.w3.org/2000/svg">
<path fill-rule="evenodd" clip-rule="evenodd" d="M15.027 0.112473C6.75919 0.112473 0.0548096 6.92991 0.0548096 15.3403C0.0548096 22.0685 4.34481 27.7766 10.2937 29.7902C11.042 29.9312 11.3167 29.4599 11.3167 29.0577C11.3167 28.6945 11.3028 27.495 11.2964 26.2225C7.13109 27.1437 6.25216 24.4258 6.25216 24.4258C5.57109 22.6656 4.58977 22.1976 4.58977 22.1976C3.23134 21.2525 4.69217 21.2719 4.69217 21.2719C6.19564 21.3791 6.98729 22.8411 6.98729 22.8411C8.32266 25.1692 10.4899 24.4961 11.3442 24.107C11.4786 23.1231 11.8666 22.4508 12.2948 22.0708C8.96927 21.6857 5.4734 20.3799 5.4734 14.545C5.4734 12.8824 6.05828 11.524 7.01605 10.4575C6.86059 10.0737 6.34812 8.52514 7.16109 6.42759C7.16109 6.42759 8.41836 6.01831 11.2795 7.98853C12.4738 7.65112 13.7546 7.48191 15.027 7.47611C16.2994 7.48191 17.5813 7.65112 18.7778 7.98853C21.6355 6.01831 22.891 6.42759 22.891 6.42759C23.706 8.52514 23.1932 10.0737 23.0378 10.4575C23.9978 11.524 24.5787 12.8824 24.5787 14.545C24.5787 20.3938 21.0761 21.6817 17.7422 22.0587C18.2792 22.5312 18.7577 23.4579 18.7577 24.8787C18.7577 26.916 18.7403 28.5558 18.7403 29.0577C18.7403 29.4629 19.0099 29.9377 19.7688 29.7882C25.7145 27.7723 29.999 22.0662 29.999 15.3403C29.999 6.92991 23.2956 0.112473 15.027 0.112473Z" fill="black"/>
<path fill-rule="evenodd" clip-rule="evenodd" d="M5.72555 21.9764C5.69258 22.0523 5.57555 22.0748 5.46894 22.0228C5.36035 21.9732 5.29935 21.87 5.33456 21.7941C5.36679 21.7162 5.48407 21.6948 5.59241 21.7465C5.70126 21.7964 5.76324 21.9005 5.72555 21.9764Z" fill="black"/>
<path fill-rule="evenodd" clip-rule="evenodd" d="M6.332 22.6644C6.26059 22.7317 6.12101 22.7004 6.0263 22.594C5.92836 22.4878 5.91002 22.3459 5.98241 22.2775C6.05605 22.2102 6.19142 22.2417 6.2896 22.3479C6.38754 22.4553 6.40663 22.5963 6.332 22.6644Z" fill="black"/>
<path fill-rule="evenodd" clip-rule="evenodd" d="M6.92233 23.5414C6.83059 23.6062 6.68059 23.5455 6.58787 23.41C6.49613 23.2746 6.49613 23.1122 6.58985 23.0472C6.68283 22.9821 6.8306 23.0406 6.92456 23.175C7.01605 23.3124 7.01605 23.4751 6.92233 23.5414Z" fill="black"/>
<path fill-rule="evenodd" clip-rule="evenodd" d="M7.73109 24.3887C7.64902 24.4808 7.47423 24.456 7.3463 24.3305C7.21539 24.2077 7.17894 24.0334 7.26126 23.9414C7.34431 23.8491 7.5201 23.875 7.64902 23.9996C7.77894 24.1222 7.81861 24.2977 7.73109 24.3887Z" fill="black"/>
<path fill-rule="evenodd" clip-rule="evenodd" d="M8.84679 24.8807C8.81059 25 8.64225 25.0542 8.47266 25.0035C8.30332 24.9513 8.1925 24.8116 8.22671 24.6911C8.26192 24.571 8.43101 24.5145 8.60183 24.5688C8.77093 24.6207 8.882 24.7594 8.84679 24.8807Z" fill="black"/>
<path fill-rule="evenodd" clip-rule="evenodd" d="M10.0721 24.972C10.0763 25.0976 9.9325 25.2017 9.75448 25.2037C9.57547 25.208 9.43068 25.1064 9.42869 24.9828C9.42869 24.856 9.56927 24.7528 9.74828 24.7498C9.9263 24.7463 10.0721 24.8472 10.0721 24.972Z" fill="black"/>
<path fill-rule="evenodd" clip-rule="evenodd" d="M11.2123 24.7745C11.2337 24.8971 11.1099 25.0229 10.9332 25.0562C10.7594 25.0887 10.5984 25.0131 10.5764 24.8915C10.5548 24.766 10.6808 24.6401 10.8543 24.6076C11.0313 24.5763 11.1898 24.65 11.2123 24.7745Z" fill="black"/>
</svg>
